<svg width="180" height="180" viewBox="0 0 180 180" fill="none" xmlns="http://www.w3.org/2000/svg">
<rect width="180" height="180" fill="white"/>
<path d="M120.762 88.3254C120.444 88.6436 120.108 88.8027 119.755 88.8027C119.224 88.8027 118.729 88.4845 118.27 87.8481C117.845 87.1763 117.474 86.6637 117.156 86.3101C114.186 83.3403 111.623 82.7393 109.466 84.507C109.042 84.7899 108.971 85.1788 109.254 85.6737C110.739 87.9718 111.976 90.1638 112.966 92.2498C115.088 96.8813 115.83 101.548 115.194 106.25C114.593 110.953 113.002 115.177 110.421 118.925C107.84 122.673 104.481 125.731 100.345 128.1C96.2435 130.504 91.7534 131.706 86.8745 131.706C80.6166 131.706 75.225 130.221 70.6996 127.251C66.1741 124.317 63.717 120.092 63.3281 114.576L64.2826 110.228C64.6008 108.778 64.9897 107.346 65.4494 105.932C66.7221 102.291 66.563 99.8334 64.9721 98.5606C64.0882 97.8535 63.0806 97.5 61.9492 97.5C60.8886 97.4646 60.3582 97.0404 60.3582 96.2272C60.3582 95.3787 60.8886 94.9367 61.9492 94.9014C62.8331 94.9014 63.7877 95.0074 64.813 95.2196C65.8383 95.4317 66.7928 95.6085 67.6767 95.7499C71.4597 96.5631 74.3942 98.101 76.4801 100.364C78.566 102.591 78.8842 106.25 77.4347 111.341C76.0558 116.044 75.8614 120.021 76.8513 123.274C77.8766 126.526 81.147 128.312 86.6623 128.63C91.506 128.842 95.2713 127.481 97.9582 124.547C100.645 121.612 102.342 117.758 103.049 112.985C103.544 109.662 102.82 105.95 100.875 101.849C98.9305 97.7475 96.3319 93.6286 93.0793 89.4921C85.6901 80.1584 82.7733 73.5293 84.3289 69.6049C85.8845 65.6452 89.314 61.3142 94.6172 56.612V56.5589C94.794 56.3822 95.0768 56.2938 95.4657 56.2938C96.3496 56.2938 96.7915 56.718 96.7915 57.5665C96.7915 57.9201 96.6324 58.256 96.3142 58.5742C93.3091 61.7561 93.15 64.9557 95.8369 68.173C97.7461 70.5065 99.6199 72.8222 101.458 75.1203C103.332 77.383 105.065 79.628 106.656 81.8554C107.115 82.4211 107.592 82.4388 108.087 81.9084C109.572 80.0346 111.075 78.1785 112.595 76.34C114.115 74.4662 115.653 72.5747 117.209 70.6656C117.845 69.8877 118.535 69.7994 119.277 70.4004C120.55 71.461 121.787 72.5394 122.99 73.6354C124.227 74.696 125.482 75.7567 126.755 76.8173C127.073 77.0648 127.427 77.3653 127.816 77.7189C128.204 78.0724 128.399 78.4436 128.399 78.8326C128.399 79.1507 128.151 79.575 127.656 80.1053C127.197 80.6003 126.773 81.0599 126.384 81.4842L120.762 88.3254ZM84.7001 87.742C77.6645 90.8886 70.8056 91.0654 64.1235 88.2723C57.3708 85.4439 53.4287 79.9639 52.2973 71.8323C51.166 63.7006 53.5878 56.1877 59.5628 49.2935C65.5377 42.3993 73.8638 38.9522 84.541 38.9522C89.5614 38.9522 94.6172 39.783 99.7083 41.4447C104.799 43.1064 109.944 45.3161 115.141 48.0737C118.57 49.8768 121.929 50.2127 125.217 49.0814C125.924 48.7985 126.454 48.6041 126.808 48.498C127.586 48.3566 128.063 48.5687 128.24 49.1344C128.452 49.7001 128.134 50.3188 127.285 50.9905C124.74 52.829 122.176 54.6498 119.595 56.4529C117.015 58.2206 114.487 60.0591 112.012 61.9682C111.128 62.6753 110.156 62.693 109.095 62.0213C105.913 59.6878 101.511 57.2484 95.89 54.7028C90.3039 52.1572 84.6471 50.8845 78.9196 50.8845C72.2022 50.8845 66.7045 52.7936 62.4265 56.612C58.1839 60.4303 56.151 65.3093 56.3278 71.2489C56.5399 77.1532 59.1385 81.7493 64.1235 85.0373C69.1086 88.3254 75.4902 88.4491 83.2683 85.4086C83.9046 85.1611 84.435 85.1081 84.8592 85.2495C85.2835 85.3555 85.5663 85.5677 85.7077 85.8859C85.8845 86.1687 85.8845 86.5046 85.7077 86.8935C85.5663 87.247 85.2305 87.5299 84.7001 87.742Z" fill="black"/>
</svg>
